<svg xmlns="http://www.w3.org/2000/svg" xmlns:xlink="http://www.w3.org/1999/xlink" width="120" zoomAndPan="magnify" viewBox="0 0 90 30.000001" height="40" preserveAspectRatio="xMidYMid meet" version="1.0"><defs><g/></defs><g fill="#ff00ff" fill-opacity="1"><g transform="translate(11.874881, 14.557628)"><g><path d="M 13.234375 -3.789062 C 12.808594 -4.234375 12.289062 -4.453125 11.65625 -4.453125 L 3.492188 -4.453125 C 3.222656 -4.453125 3 -4.546875 2.8125 -4.738281 C 2.621094 -4.929688 2.542969 -5.148438 2.542969 -5.417969 C 2.542969 -5.671875 2.621094 -5.890625 2.8125 -6.082031 C 3 -6.269531 3.222656 -6.363281 3.492188 -6.363281 L 13.582031 -6.363281 L 13.582031 -7.644531 L 3.492188 -7.644531 C 2.875 -7.644531 2.351562 -7.421875 1.910156 -6.980469 C 1.484375 -6.554688 1.261719 -6.015625 1.261719 -5.417969 C 1.261719 -4.800781 1.484375 -4.265625 1.910156 -3.839844 C 2.351562 -3.394531 2.875 -3.175781 3.492188 -3.175781 L 11.65625 -3.175781 C 11.925781 -3.175781 12.144531 -3.078125 12.335938 -2.90625 C 12.523438 -2.714844 12.621094 -2.480469 12.621094 -2.226562 C 12.621094 -1.957031 12.523438 -1.738281 12.335938 -1.546875 C 12.144531 -1.359375 11.925781 -1.261719 11.65625 -1.261719 L 1.578125 -1.261719 L 1.578125 0 L 11.65625 0 C 12.289062 0 12.808594 -0.207031 13.234375 -0.648438 C 13.675781 -1.089844 13.898438 -1.609375 13.898438 -2.226562 C 13.898438 -2.84375 13.675781 -3.363281 13.234375 -3.789062 Z M 13.234375 -3.789062 "/></g></g></g><g fill="#ff00ff" fill-opacity="1"><g transform="translate(27.037236, 14.557628)"><g><path d="M 2.527344 -7.660156 L 1.261719 -7.660156 L 1.261719 0 L 2.542969 0 Z M 2.527344 -7.660156 "/></g></g></g><g fill="#ff00ff" fill-opacity="1"><g transform="translate(30.843619, 14.557628)"><g><path d="M 13.234375 -3.789062 C 12.808594 -4.234375 12.289062 -4.453125 11.65625 -4.453125 L 3.492188 -4.453125 C 3.222656 -4.453125 3 -4.546875 2.8125 -4.738281 C 2.621094 -4.929688 2.542969 -5.148438 2.542969 -5.417969 C 2.542969 -5.671875 2.621094 -5.890625 2.8125 -6.082031 C 3 -6.269531 3.222656 -6.363281 3.492188 -6.363281 L 13.582031 -6.363281 L 13.582031 -7.644531 L 3.492188 -7.644531 C 2.875 -7.644531 2.351562 -7.421875 1.910156 -6.980469 C 1.484375 -6.554688 1.261719 -6.015625 1.261719 -5.417969 C 1.261719 -4.800781 1.484375 -4.265625 1.910156 -3.839844 C 2.351562 -3.394531 2.875 -3.175781 3.492188 -3.175781 L 11.65625 -3.175781 C 11.925781 -3.175781 12.144531 -3.078125 12.335938 -2.90625 C 12.523438 -2.714844 12.621094 -2.480469 12.621094 -2.226562 C 12.621094 -1.957031 12.523438 -1.738281 12.335938 -1.546875 C 12.144531 -1.359375 11.925781 -1.261719 11.65625 -1.261719 L 1.578125 -1.261719 L 1.578125 0 L 11.65625 0 C 12.289062 0 12.808594 -0.207031 13.234375 -0.648438 C 13.675781 -1.089844 13.898438 -1.609375 13.898438 -2.226562 C 13.898438 -2.84375 13.675781 -3.363281 13.234375 -3.789062 Z M 13.234375 -3.789062 "/></g></g></g><g fill="#ff00ff" fill-opacity="1"><g transform="translate(46.005974, 14.557628)"><g><path d="M 2.828125 -6.113281 C 2.96875 -6.253906 3.144531 -6.347656 3.316406 -6.378906 L 13.898438 -6.378906 L 13.898438 -7.660156 L 3.507812 -7.660156 C 2.875 -7.660156 2.351562 -7.453125 1.925781 -7.011719 C 1.484375 -6.554688 1.261719 -6.050781 1.261719 -5.433594 L 1.261719 0 L 2.542969 0 L 2.542969 -3.191406 L 12.554688 -3.191406 L 12.554688 -4.46875 L 2.542969 -4.46875 L 2.542969 -5.433594 C 2.542969 -5.703125 2.636719 -5.921875 2.828125 -6.113281 Z M 2.828125 -6.113281 "/></g></g></g><g fill="#ff00ff" fill-opacity="1"><g transform="translate(61.16833, 14.557628)"><g><path d="M 13.234375 -7.011719 C 12.792969 -7.453125 12.289062 -7.660156 11.65625 -7.660156 L 3.492188 -7.660156 C 2.859375 -7.660156 2.351562 -7.453125 1.925781 -7.011719 C 1.484375 -6.554688 1.261719 -6.066406 1.261719 -5.464844 L 1.261719 -2.226562 C 1.261719 -1.609375 1.484375 -1.089844 1.925781 -0.648438 C 2.351562 -0.207031 2.875 0 3.507812 0 L 11.671875 0 C 12.304688 0 12.808594 -0.207031 13.234375 -0.648438 C 13.675781 -1.105469 13.898438 -1.609375 13.898438 -2.226562 L 13.898438 -5.433594 C 13.898438 -6.050781 13.675781 -6.570312 13.234375 -7.011719 Z M 12.335938 -1.5625 C 12.144531 -1.375 11.925781 -1.28125 11.65625 -1.28125 L 3.316406 -1.28125 C 3.144531 -1.3125 2.96875 -1.40625 2.828125 -1.546875 C 2.636719 -1.738281 2.542969 -1.957031 2.542969 -2.226562 L 2.542969 -5.433594 C 2.542969 -5.703125 2.636719 -5.921875 2.828125 -6.113281 C 3.015625 -6.300781 3.238281 -6.398438 3.507812 -6.398438 L 11.65625 -6.398438 C 11.925781 -6.398438 12.144531 -6.300781 12.335938 -6.113281 C 12.523438 -5.921875 12.621094 -5.703125 12.621094 -5.433594 L 12.621094 -2.226562 C 12.621094 -1.972656 12.523438 -1.753906 12.335938 -1.5625 Z M 12.335938 -1.5625 "/></g></g></g><g fill="#00ffff" fill-opacity="1"><g transform="translate(13.668478, 14.00927)"><g><path d="M 13.234375 -3.789062 C 12.808594 -4.234375 12.289062 -4.453125 11.65625 -4.453125 L 3.492188 -4.453125 C 3.222656 -4.453125 3 -4.546875 2.8125 -4.738281 C 2.621094 -4.929688 2.542969 -5.148438 2.542969 -5.417969 C 2.542969 -5.671875 2.621094 -5.890625 2.8125 -6.082031 C 3 -6.269531 3.222656 -6.363281 3.492188 -6.363281 L 13.582031 -6.363281 L 13.582031 -7.644531 L 3.492188 -7.644531 C 2.875 -7.644531 2.351562 -7.421875 1.910156 -6.980469 C 1.484375 -6.554688 1.261719 -6.015625 1.261719 -5.417969 C 1.261719 -4.800781 1.484375 -4.265625 1.910156 -3.839844 C 2.351562 -3.394531 2.875 -3.175781 3.492188 -3.175781 L 11.65625 -3.175781 C 11.925781 -3.175781 12.144531 -3.078125 12.335938 -2.90625 C 12.523438 -2.714844 12.621094 -2.480469 12.621094 -2.226562 C 12.621094 -1.957031 12.523438 -1.738281 12.335938 -1.546875 C 12.144531 -1.359375 11.925781 -1.261719 11.65625 -1.261719 L 1.578125 -1.261719 L 1.578125 0 L 11.65625 0 C 12.289062 0 12.808594 -0.207031 13.234375 -0.648438 C 13.675781 -1.089844 13.898438 -1.609375 13.898438 -2.226562 C 13.898438 -2.84375 13.675781 -3.363281 13.234375 -3.789062 Z M 13.234375 -3.789062 "/></g></g></g><g fill="#00ffff" fill-opacity="1"><g transform="translate(28.830833, 14.00927)"><g><path d="M 2.527344 -7.660156 L 1.261719 -7.660156 L 1.261719 0 L 2.542969 0 Z M 2.527344 -7.660156 "/></g></g></g><g fill="#00ffff" fill-opacity="1"><g transform="translate(32.637217, 14.00927)"><g><path d="M 13.234375 -3.789062 C 12.808594 -4.234375 12.289062 -4.453125 11.65625 -4.453125 L 3.492188 -4.453125 C 3.222656 -4.453125 3 -4.546875 2.8125 -4.738281 C 2.621094 -4.929688 2.542969 -5.148438 2.542969 -5.417969 C 2.542969 -5.671875 2.621094 -5.890625 2.8125 -6.082031 C 3 -6.269531 3.222656 -6.363281 3.492188 -6.363281 L 13.582031 -6.363281 L 13.582031 -7.644531 L 3.492188 -7.644531 C 2.875 -7.644531 2.351562 -7.421875 1.910156 -6.980469 C 1.484375 -6.554688 1.261719 -6.015625 1.261719 -5.417969 C 1.261719 -4.800781 1.484375 -4.265625 1.910156 -3.839844 C 2.351562 -3.394531 2.875 -3.175781 3.492188 -3.175781 L 11.65625 -3.175781 C 11.925781 -3.175781 12.144531 -3.078125 12.335938 -2.90625 C 12.523438 -2.714844 12.621094 -2.480469 12.621094 -2.226562 C 12.621094 -1.957031 12.523438 -1.738281 12.335938 -1.546875 C 12.144531 -1.359375 11.925781 -1.261719 11.65625 -1.261719 L 1.578125 -1.261719 L 1.578125 0 L 11.65625 0 C 12.289062 0 12.808594 -0.207031 13.234375 -0.648438 C 13.675781 -1.089844 13.898438 -1.609375 13.898438 -2.226562 C 13.898438 -2.84375 13.675781 -3.363281 13.234375 -3.789062 Z M 13.234375 -3.789062 "/></g></g></g><g fill="#00ffff" fill-opacity="1"><g transform="translate(47.799572, 14.00927)"><g><path d="M 2.828125 -6.113281 C 2.96875 -6.253906 3.144531 -6.347656 3.316406 -6.378906 L 13.898438 -6.378906 L 13.898438 -7.660156 L 3.507812 -7.660156 C 2.875 -7.660156 2.351562 -7.453125 1.925781 -7.011719 C 1.484375 -6.554688 1.261719 -6.050781 1.261719 -5.433594 L 1.261719 0 L 2.542969 0 L 2.542969 -3.191406 L 12.554688 -3.191406 L 12.554688 -4.46875 L 2.542969 -4.46875 L 2.542969 -5.433594 C 2.542969 -5.703125 2.636719 -5.921875 2.828125 -6.113281 Z M 2.828125 -6.113281 "/></g></g></g><g fill="#00ffff" fill-opacity="1"><g transform="translate(62.961928, 14.00927)"><g><path d="M 13.234375 -7.011719 C 12.792969 -7.453125 12.289062 -7.660156 11.65625 -7.660156 L 3.492188 -7.660156 C 2.859375 -7.660156 2.351562 -7.453125 1.925781 -7.011719 C 1.484375 -6.554688 1.261719 -6.066406 1.261719 -5.464844 L 1.261719 -2.226562 C 1.261719 -1.609375 1.484375 -1.089844 1.925781 -0.648438 C 2.351562 -0.207031 2.875 0 3.507812 0 L 11.671875 0 C 12.304688 0 12.808594 -0.207031 13.234375 -0.648438 C 13.675781 -1.105469 13.898438 -1.609375 13.898438 -2.226562 L 13.898438 -5.433594 C 13.898438 -6.050781 13.675781 -6.570312 13.234375 -7.011719 Z M 12.335938 -1.5625 C 12.144531 -1.375 11.925781 -1.28125 11.65625 -1.28125 L 3.316406 -1.28125 C 3.144531 -1.3125 2.96875 -1.40625 2.828125 -1.546875 C 2.636719 -1.738281 2.542969 -1.957031 2.542969 -2.226562 L 2.542969 -5.433594 C 2.542969 -5.703125 2.636719 -5.921875 2.828125 -6.113281 C 3.015625 -6.300781 3.238281 -6.398438 3.507812 -6.398438 L 11.65625 -6.398438 C 11.925781 -6.398438 12.144531 -6.300781 12.335938 -6.113281 C 12.523438 -5.921875 12.621094 -5.703125 12.621094 -5.433594 L 12.621094 -2.226562 C 12.621094 -1.972656 12.523438 -1.753906 12.335938 -1.5625 Z M 12.335938 -1.5625 "/></g></g></g><g fill="#ff1616" fill-opacity="1"><g transform="translate(12.77168, 14.283449)"><g><path d="M 13.234375 -3.789062 C 12.808594 -4.234375 12.289062 -4.453125 11.65625 -4.453125 L 3.492188 -4.453125 C 3.222656 -4.453125 3 -4.546875 2.8125 -4.738281 C 2.621094 -4.929688 2.542969 -5.148438 2.542969 -5.417969 C 2.542969 -5.671875 2.621094 -5.890625 2.8125 -6.082031 C 3 -6.269531 3.222656 -6.363281 3.492188 -6.363281 L 13.582031 -6.363281 L 13.582031 -7.644531 L 3.492188 -7.644531 C 2.875 -7.644531 2.351562 -7.421875 1.910156 -6.980469 C 1.484375 -6.554688 1.261719 -6.015625 1.261719 -5.417969 C 1.261719 -4.800781 1.484375 -4.265625 1.910156 -3.839844 C 2.351562 -3.394531 2.875 -3.175781 3.492188 -3.175781 L 11.65625 -3.175781 C 11.925781 -3.175781 12.144531 -3.078125 12.335938 -2.90625 C 12.523438 -2.714844 12.621094 -2.480469 12.621094 -2.226562 C 12.621094 -1.957031 12.523438 -1.738281 12.335938 -1.546875 C 12.144531 -1.359375 11.925781 -1.261719 11.65625 -1.261719 L 1.578125 -1.261719 L 1.578125 0 L 11.65625 0 C 12.289062 0 12.808594 -0.207031 13.234375 -0.648438 C 13.675781 -1.089844 13.898438 -1.609375 13.898438 -2.226562 C 13.898438 -2.84375 13.675781 -3.363281 13.234375 -3.789062 Z M 13.234375 -3.789062 "/></g></g></g><g fill="#ff1616" fill-opacity="1"><g transform="translate(27.934034, 14.283449)"><g><path d="M 2.527344 -7.660156 L 1.261719 -7.660156 L 1.261719 0 L 2.542969 0 Z M 2.527344 -7.660156 "/></g></g></g><g fill="#ff1616" fill-opacity="1"><g transform="translate(31.740418, 14.283449)"><g><path d="M 13.234375 -3.789062 C 12.808594 -4.234375 12.289062 -4.453125 11.65625 -4.453125 L 3.492188 -4.453125 C 3.222656 -4.453125 3 -4.546875 2.8125 -4.738281 C 2.621094 -4.929688 2.542969 -5.148438 2.542969 -5.417969 C 2.542969 -5.671875 2.621094 -5.890625 2.8125 -6.082031 C 3 -6.269531 3.222656 -6.363281 3.492188 -6.363281 L 13.582031 -6.363281 L 13.582031 -7.644531 L 3.492188 -7.644531 C 2.875 -7.644531 2.351562 -7.421875 1.910156 -6.980469 C 1.484375 -6.554688 1.261719 -6.015625 1.261719 -5.417969 C 1.261719 -4.800781 1.484375 -4.265625 1.910156 -3.839844 C 2.351562 -3.394531 2.875 -3.175781 3.492188 -3.175781 L 11.65625 -3.175781 C 11.925781 -3.175781 12.144531 -3.078125 12.335938 -2.90625 C 12.523438 -2.714844 12.621094 -2.480469 12.621094 -2.226562 C 12.621094 -1.957031 12.523438 -1.738281 12.335938 -1.546875 C 12.144531 -1.359375 11.925781 -1.261719 11.65625 -1.261719 L 1.578125 -1.261719 L 1.578125 0 L 11.65625 0 C 12.289062 0 12.808594 -0.207031 13.234375 -0.648438 C 13.675781 -1.089844 13.898438 -1.609375 13.898438 -2.226562 C 13.898438 -2.84375 13.675781 -3.363281 13.234375 -3.789062 Z M 13.234375 -3.789062 "/></g></g></g><g fill="#ff1616" fill-opacity="1"><g transform="translate(46.902773, 14.283449)"><g><path d="M 2.828125 -6.113281 C 2.96875 -6.253906 3.144531 -6.347656 3.316406 -6.378906 L 13.898438 -6.378906 L 13.898438 -7.660156 L 3.507812 -7.660156 C 2.875 -7.660156 2.351562 -7.453125 1.925781 -7.011719 C 1.484375 -6.554688 1.261719 -6.050781 1.261719 -5.433594 L 1.261719 0 L 2.542969 0 L 2.542969 -3.191406 L 12.554688 -3.191406 L 12.554688 -4.46875 L 2.542969 -4.46875 L 2.542969 -5.433594 C 2.542969 -5.703125 2.636719 -5.921875 2.828125 -6.113281 Z M 2.828125 -6.113281 "/></g></g></g><g fill="#ff1616" fill-opacity="1"><g transform="translate(62.065129, 14.283449)"><g><path d="M 13.234375 -7.011719 C 12.792969 -7.453125 12.289062 -7.660156 11.65625 -7.660156 L 3.492188 -7.660156 C 2.859375 -7.660156 2.351562 -7.453125 1.925781 -7.011719 C 1.484375 -6.554688 1.261719 -6.066406 1.261719 -5.464844 L 1.261719 -2.226562 C 1.261719 -1.609375 1.484375 -1.089844 1.925781 -0.648438 C 2.351562 -0.207031 2.875 0 3.507812 0 L 11.671875 0 C 12.304688 0 12.808594 -0.207031 13.234375 -0.648438 C 13.675781 -1.105469 13.898438 -1.609375 13.898438 -2.226562 L 13.898438 -5.433594 C 13.898438 -6.050781 13.675781 -6.570312 13.234375 -7.011719 Z M 12.335938 -1.5625 C 12.144531 -1.375 11.925781 -1.28125 11.65625 -1.28125 L 3.316406 -1.28125 C 3.144531 -1.3125 2.96875 -1.40625 2.828125 -1.546875 C 2.636719 -1.738281 2.542969 -1.957031 2.542969 -2.226562 L 2.542969 -5.433594 C 2.542969 -5.703125 2.636719 -5.921875 2.828125 -6.113281 C 3.015625 -6.300781 3.238281 -6.398438 3.507812 -6.398438 L 11.65625 -6.398438 C 11.925781 -6.398438 12.144531 -6.300781 12.335938 -6.113281 C 12.523438 -5.921875 12.621094 -5.703125 12.621094 -5.433594 L 12.621094 -2.226562 C 12.621094 -1.972656 12.523438 -1.753906 12.335938 -1.5625 Z M 12.335938 -1.5625 "/></g></g></g><g fill="#ff00ff" fill-opacity="1"><g transform="translate(4.294016, 24.034095)"><g><path d="M 12.777344 -6.539062 C 12.035156 -7.28125 11.136719 -7.660156 10.078125 -7.660156 L 1.261719 -7.660156 L 1.261719 0 L 10.078125 0 C 11.136719 0 12.035156 -0.378906 12.777344 -1.121094 C 13.519531 -1.878906 13.898438 -2.78125 13.898438 -3.820312 C 13.898438 -4.878906 13.519531 -5.78125 12.777344 -6.539062 Z M 11.878906 -2.023438 C 11.386719 -1.53125 10.789062 -1.28125 10.078125 -1.28125 L 2.542969 -1.28125 L 2.542969 -6.378906 L 10.078125 -6.378906 C 10.789062 -6.378906 11.386719 -6.128906 11.878906 -5.636719 C 12.382812 -5.132812 12.621094 -4.53125 12.621094 -3.820312 C 12.621094 -3.128906 12.382812 -2.527344 11.878906 -2.023438 Z M 11.878906 -2.023438 "/></g></g></g><g fill="#ff00ff" fill-opacity="1"><g transform="translate(19.456371, 24.034095)"><g><path d="M 2.527344 -7.660156 L 1.261719 -7.660156 L 1.261719 0 L 2.542969 0 Z M 2.527344 -7.660156 "/></g></g></g><g fill="#ff00ff" fill-opacity="1"><g transform="translate(23.262754, 24.034095)"><g><path d="M 13.234375 -3.804688 C 12.855469 -4.203125 12.398438 -4.421875 11.84375 -4.46875 L 13.519531 -7.660156 L 12.097656 -7.660156 L 10.425781 -4.46875 L 2.542969 -4.46875 L 2.542969 -5.433594 L 2.527344 -7.660156 L 1.261719 -7.660156 L 1.261719 0 L 2.542969 0 L 2.542969 -3.191406 L 11.65625 -3.191406 C 11.925781 -3.191406 12.144531 -3.09375 12.335938 -2.90625 C 12.523438 -2.730469 12.621094 -2.496094 12.621094 -2.226562 L 12.621094 0 L 13.898438 0 L 13.898438 -2.226562 C 13.898438 -2.859375 13.675781 -3.378906 13.234375 -3.804688 Z M 13.234375 -3.804688 "/></g></g></g><g fill="#ff00ff" fill-opacity="1"><g transform="translate(38.425109, 24.034095)"><g><path d="M 13.234375 -6.996094 C 12.808594 -7.4375 12.289062 -7.660156 11.65625 -7.660156 L 1.261719 -7.660156 L 1.261719 0 L 2.542969 0 L 2.542969 -3.191406 L 11.65625 -3.191406 C 12.289062 -3.191406 12.808594 -3.410156 13.234375 -3.855469 C 13.675781 -4.28125 13.898438 -4.800781 13.898438 -5.433594 C 13.898438 -6.035156 13.675781 -6.554688 13.234375 -6.996094 Z M 12.335938 -4.753906 C 12.144531 -4.566406 11.925781 -4.46875 11.65625 -4.46875 L 2.542969 -4.46875 L 2.542969 -6.378906 L 11.65625 -6.378906 C 11.925781 -6.378906 12.144531 -6.285156 12.335938 -6.097656 C 12.523438 -5.90625 12.621094 -5.6875 12.621094 -5.433594 C 12.621094 -5.164062 12.523438 -4.929688 12.335938 -4.753906 Z M 12.335938 -4.753906 "/></g></g></g><g fill="#ff00ff" fill-opacity="1"><g transform="translate(53.587466, 24.034095)"><g><path d="M 12.621094 -7.660156 L 12.621094 -2.226562 C 12.621094 -1.972656 12.523438 -1.753906 12.335938 -1.5625 C 12.144531 -1.375 11.925781 -1.28125 11.65625 -1.28125 L 3.316406 -1.28125 C 3.144531 -1.3125 2.96875 -1.40625 2.828125 -1.546875 C 2.636719 -1.738281 2.542969 -1.957031 2.542969 -2.226562 L 2.542969 -7.660156 L 1.261719 -7.660156 L 1.261719 -2.226562 C 1.261719 -1.609375 1.484375 -1.089844 1.925781 -0.648438 C 2.351562 -0.207031 2.875 0 3.507812 0 L 11.671875 0 C 12.304688 0 12.808594 -0.207031 13.234375 -0.648438 C 13.675781 -1.105469 13.898438 -1.609375 13.898438 -2.226562 L 13.898438 -7.660156 Z M 12.621094 -7.660156 "/></g></g></g><g fill="#ff00ff" fill-opacity="1"><g transform="translate(68.749822, 24.034095)"><g><path d="M 13.234375 -3.789062 C 12.808594 -4.234375 12.289062 -4.453125 11.65625 -4.453125 L 3.492188 -4.453125 C 3.222656 -4.453125 3 -4.546875 2.8125 -4.738281 C 2.621094 -4.929688 2.542969 -5.148438 2.542969 -5.417969 C 2.542969 -5.671875 2.621094 -5.890625 2.8125 -6.082031 C 3 -6.269531 3.222656 -6.363281 3.492188 -6.363281 L 13.582031 -6.363281 L 13.582031 -7.644531 L 3.492188 -7.644531 C 2.875 -7.644531 2.351562 -7.421875 1.910156 -6.980469 C 1.484375 -6.554688 1.261719 -6.015625 1.261719 -5.417969 C 1.261719 -4.800781 1.484375 -4.265625 1.910156 -3.839844 C 2.351562 -3.394531 2.875 -3.175781 3.492188 -3.175781 L 11.65625 -3.175781 C 11.925781 -3.175781 12.144531 -3.078125 12.335938 -2.90625 C 12.523438 -2.714844 12.621094 -2.480469 12.621094 -2.226562 C 12.621094 -1.957031 12.523438 -1.738281 12.335938 -1.546875 C 12.144531 -1.359375 11.925781 -1.261719 11.65625 -1.261719 L 1.578125 -1.261719 L 1.578125 0 L 11.65625 0 C 12.289062 0 12.808594 -0.207031 13.234375 -0.648438 C 13.675781 -1.089844 13.898438 -1.609375 13.898438 -2.226562 C 13.898438 -2.84375 13.675781 -3.363281 13.234375 -3.789062 Z M 13.234375 -3.789062 "/></g></g></g><g fill="#00ffff" fill-opacity="1"><g transform="translate(6.087614, 23.485736)"><g><path d="M 12.777344 -6.539062 C 12.035156 -7.28125 11.136719 -7.660156 10.078125 -7.660156 L 1.261719 -7.660156 L 1.261719 0 L 10.078125 0 C 11.136719 0 12.035156 -0.378906 12.777344 -1.121094 C 13.519531 -1.878906 13.898438 -2.78125 13.898438 -3.820312 C 13.898438 -4.878906 13.519531 -5.78125 12.777344 -6.539062 Z M 11.878906 -2.023438 C 11.386719 -1.53125 10.789062 -1.28125 10.078125 -1.28125 L 2.542969 -1.28125 L 2.542969 -6.378906 L 10.078125 -6.378906 C 10.789062 -6.378906 11.386719 -6.128906 11.878906 -5.636719 C 12.382812 -5.132812 12.621094 -4.53125 12.621094 -3.820312 C 12.621094 -3.128906 12.382812 -2.527344 11.878906 -2.023438 Z M 11.878906 -2.023438 "/></g></g></g><g fill="#00ffff" fill-opacity="1"><g transform="translate(21.249968, 23.485736)"><g><path d="M 2.527344 -7.660156 L 1.261719 -7.660156 L 1.261719 0 L 2.542969 0 Z M 2.527344 -7.660156 "/></g></g></g><g fill="#00ffff" fill-opacity="1"><g transform="translate(25.056352, 23.485736)"><g><path d="M 13.234375 -3.804688 C 12.855469 -4.203125 12.398438 -4.421875 11.84375 -4.46875 L 13.519531 -7.660156 L 12.097656 -7.660156 L 10.425781 -4.46875 L 2.542969 -4.46875 L 2.542969 -5.433594 L 2.527344 -7.660156 L 1.261719 -7.660156 L 1.261719 0 L 2.542969 0 L 2.542969 -3.191406 L 11.65625 -3.191406 C 11.925781 -3.191406 12.144531 -3.09375 12.335938 -2.90625 C 12.523438 -2.730469 12.621094 -2.496094 12.621094 -2.226562 L 12.621094 0 L 13.898438 0 L 13.898438 -2.226562 C 13.898438 -2.859375 13.675781 -3.378906 13.234375 -3.804688 Z M 13.234375 -3.804688 "/></g></g></g><g fill="#00ffff" fill-opacity="1"><g transform="translate(40.218707, 23.485736)"><g><path d="M 13.234375 -6.996094 C 12.808594 -7.4375 12.289062 -7.660156 11.65625 -7.660156 L 1.261719 -7.660156 L 1.261719 0 L 2.542969 0 L 2.542969 -3.191406 L 11.65625 -3.191406 C 12.289062 -3.191406 12.808594 -3.410156 13.234375 -3.855469 C 13.675781 -4.28125 13.898438 -4.800781 13.898438 -5.433594 C 13.898438 -6.035156 13.675781 -6.554688 13.234375 -6.996094 Z M 12.335938 -4.753906 C 12.144531 -4.566406 11.925781 -4.46875 11.65625 -4.46875 L 2.542969 -4.46875 L 2.542969 -6.378906 L 11.65625 -6.378906 C 11.925781 -6.378906 12.144531 -6.285156 12.335938 -6.097656 C 12.523438 -5.90625 12.621094 -5.6875 12.621094 -5.433594 C 12.621094 -5.164062 12.523438 -4.929688 12.335938 -4.753906 Z M 12.335938 -4.753906 "/></g></g></g><g fill="#00ffff" fill-opacity="1"><g transform="translate(55.381063, 23.485736)"><g><path d="M 12.621094 -7.660156 L 12.621094 -2.226562 C 12.621094 -1.972656 12.523438 -1.753906 12.335938 -1.5625 C 12.144531 -1.375 11.925781 -1.28125 11.65625 -1.28125 L 3.316406 -1.28125 C 3.144531 -1.3125 2.96875 -1.40625 2.828125 -1.546875 C 2.636719 -1.738281 2.542969 -1.957031 2.542969 -2.226562 L 2.542969 -7.660156 L 1.261719 -7.660156 L 1.261719 -2.226562 C 1.261719 -1.609375 1.484375 -1.089844 1.925781 -0.648438 C 2.351562 -0.207031 2.875 0 3.507812 0 L 11.671875 0 C 12.304688 0 12.808594 -0.207031 13.234375 -0.648438 C 13.675781 -1.105469 13.898438 -1.609375 13.898438 -2.226562 L 13.898438 -7.660156 Z M 12.621094 -7.660156 "/></g></g></g><g fill="#00ffff" fill-opacity="1"><g transform="translate(70.54342, 23.485736)"><g><path d="M 13.234375 -3.789062 C 12.808594 -4.234375 12.289062 -4.453125 11.65625 -4.453125 L 3.492188 -4.453125 C 3.222656 -4.453125 3 -4.546875 2.8125 -4.738281 C 2.621094 -4.929688 2.542969 -5.148438 2.542969 -5.417969 C 2.542969 -5.671875 2.621094 -5.890625 2.8125 -6.082031 C 3 -6.269531 3.222656 -6.363281 3.492188 -6.363281 L 13.582031 -6.363281 L 13.582031 -7.644531 L 3.492188 -7.644531 C 2.875 -7.644531 2.351562 -7.421875 1.910156 -6.980469 C 1.484375 -6.554688 1.261719 -6.015625 1.261719 -5.417969 C 1.261719 -4.800781 1.484375 -4.265625 1.910156 -3.839844 C 2.351562 -3.394531 2.875 -3.175781 3.492188 -3.175781 L 11.65625 -3.175781 C 11.925781 -3.175781 12.144531 -3.078125 12.335938 -2.90625 C 12.523438 -2.714844 12.621094 -2.480469 12.621094 -2.226562 C 12.621094 -1.957031 12.523438 -1.738281 12.335938 -1.546875 C 12.144531 -1.359375 11.925781 -1.261719 11.65625 -1.261719 L 1.578125 -1.261719 L 1.578125 0 L 11.65625 0 C 12.289062 0 12.808594 -0.207031 13.234375 -0.648438 C 13.675781 -1.089844 13.898438 -1.609375 13.898438 -2.226562 C 13.898438 -2.84375 13.675781 -3.363281 13.234375 -3.789062 Z M 13.234375 -3.789062 "/></g></g></g><g fill="#ff1616" fill-opacity="1"><g transform="translate(5.190815, 23.759915)"><g><path d="M 12.777344 -6.539062 C 12.035156 -7.28125 11.136719 -7.660156 10.078125 -7.660156 L 1.261719 -7.660156 L 1.261719 0 L 10.078125 0 C 11.136719 0 12.035156 -0.378906 12.777344 -1.121094 C 13.519531 -1.878906 13.898438 -2.78125 13.898438 -3.820312 C 13.898438 -4.878906 13.519531 -5.78125 12.777344 -6.539062 Z M 11.878906 -2.023438 C 11.386719 -1.53125 10.789062 -1.28125 10.078125 -1.28125 L 2.542969 -1.28125 L 2.542969 -6.378906 L 10.078125 -6.378906 C 10.789062 -6.378906 11.386719 -6.128906 11.878906 -5.636719 C 12.382812 -5.132812 12.621094 -4.53125 12.621094 -3.820312 C 12.621094 -3.128906 12.382812 -2.527344 11.878906 -2.023438 Z M 11.878906 -2.023438 "/></g></g></g><g fill="#ff1616" fill-opacity="1"><g transform="translate(20.35317, 23.759915)"><g><path d="M 2.527344 -7.660156 L 1.261719 -7.660156 L 1.261719 0 L 2.542969 0 Z M 2.527344 -7.660156 "/></g></g></g><g fill="#ff1616" fill-opacity="1"><g transform="translate(24.159553, 23.759915)"><g><path d="M 13.234375 -3.804688 C 12.855469 -4.203125 12.398438 -4.421875 11.84375 -4.46875 L 13.519531 -7.660156 L 12.097656 -7.660156 L 10.425781 -4.46875 L 2.542969 -4.46875 L 2.542969 -5.433594 L 2.527344 -7.660156 L 1.261719 -7.660156 L 1.261719 0 L 2.542969 0 L 2.542969 -3.191406 L 11.65625 -3.191406 C 11.925781 -3.191406 12.144531 -3.09375 12.335938 -2.90625 C 12.523438 -2.730469 12.621094 -2.496094 12.621094 -2.226562 L 12.621094 0 L 13.898438 0 L 13.898438 -2.226562 C 13.898438 -2.859375 13.675781 -3.378906 13.234375 -3.804688 Z M 13.234375 -3.804688 "/></g></g></g><g fill="#ff1616" fill-opacity="1"><g transform="translate(39.321908, 23.759915)"><g><path d="M 13.234375 -6.996094 C 12.808594 -7.4375 12.289062 -7.660156 11.65625 -7.660156 L 1.261719 -7.660156 L 1.261719 0 L 2.542969 0 L 2.542969 -3.191406 L 11.65625 -3.191406 C 12.289062 -3.191406 12.808594 -3.410156 13.234375 -3.855469 C 13.675781 -4.28125 13.898438 -4.800781 13.898438 -5.433594 C 13.898438 -6.035156 13.675781 -6.554688 13.234375 -6.996094 Z M 12.335938 -4.753906 C 12.144531 -4.566406 11.925781 -4.46875 11.65625 -4.46875 L 2.542969 -4.46875 L 2.542969 -6.378906 L 11.65625 -6.378906 C 11.925781 -6.378906 12.144531 -6.285156 12.335938 -6.097656 C 12.523438 -5.90625 12.621094 -5.6875 12.621094 -5.433594 C 12.621094 -5.164062 12.523438 -4.929688 12.335938 -4.753906 Z M 12.335938 -4.753906 "/></g></g></g><g fill="#ff1616" fill-opacity="1"><g transform="translate(54.484264, 23.759915)"><g><path d="M 12.621094 -7.660156 L 12.621094 -2.226562 C 12.621094 -1.972656 12.523438 -1.753906 12.335938 -1.5625 C 12.144531 -1.375 11.925781 -1.28125 11.65625 -1.28125 L 3.316406 -1.28125 C 3.144531 -1.3125 2.96875 -1.40625 2.828125 -1.546875 C 2.636719 -1.738281 2.542969 -1.957031 2.542969 -2.226562 L 2.542969 -7.660156 L 1.261719 -7.660156 L 1.261719 -2.226562 C 1.261719 -1.609375 1.484375 -1.089844 1.925781 -0.648438 C 2.351562 -0.207031 2.875 0 3.507812 0 L 11.671875 0 C 12.304688 0 12.808594 -0.207031 13.234375 -0.648438 C 13.675781 -1.105469 13.898438 -1.609375 13.898438 -2.226562 L 13.898438 -7.660156 Z M 12.621094 -7.660156 "/></g></g></g><g fill="#ff1616" fill-opacity="1"><g transform="translate(69.646621, 23.759915)"><g><path d="M 13.234375 -3.789062 C 12.808594 -4.234375 12.289062 -4.453125 11.65625 -4.453125 L 3.492188 -4.453125 C 3.222656 -4.453125 3 -4.546875 2.8125 -4.738281 C 2.621094 -4.929688 2.542969 -5.148438 2.542969 -5.417969 C 2.542969 -5.671875 2.621094 -5.890625 2.8125 -6.082031 C 3 -6.269531 3.222656 -6.363281 3.492188 -6.363281 L 13.582031 -6.363281 L 13.582031 -7.644531 L 3.492188 -7.644531 C 2.875 -7.644531 2.351562 -7.421875 1.910156 -6.980469 C 1.484375 -6.554688 1.261719 -6.015625 1.261719 -5.417969 C 1.261719 -4.800781 1.484375 -4.265625 1.910156 -3.839844 C 2.351562 -3.394531 2.875 -3.175781 3.492188 -3.175781 L 11.65625 -3.175781 C 11.925781 -3.175781 12.144531 -3.078125 12.335938 -2.90625 C 12.523438 -2.714844 12.621094 -2.480469 12.621094 -2.226562 C 12.621094 -1.957031 12.523438 -1.738281 12.335938 -1.546875 C 12.144531 -1.359375 11.925781 -1.261719 11.65625 -1.261719 L 1.578125 -1.261719 L 1.578125 0 L 11.65625 0 C 12.289062 0 12.808594 -0.207031 13.234375 -0.648438 C 13.675781 -1.089844 13.898438 -1.609375 13.898438 -2.226562 C 13.898438 -2.84375 13.675781 -3.363281 13.234375 -3.789062 Z M 13.234375 -3.789062 "/></g></g></g></svg>